<svg xmlns="http://www.w3.org/2000/svg" viewBox="0 0 1024 1024" width="32" height="32">
  <path d="M651.170909 208.523636c51.2 0 93.090909-41.890909 93.090909-93.090909s-41.890909-93.090909-93.090909-93.090909-93.090909 41.890909-93.090909 93.090909 41.890909 93.090909 93.090909 93.090909z m-167.563636 646.981819l46.545454-204.8 97.745455 93.090909v279.272727h93.090909v-349.090909l-97.745455-93.090909 27.927273-139.636364c60.509091 69.818182 153.6 116.363636 256 116.363636v-93.090909c-88.436364 0-162.909091-46.545455-200.145454-111.709091l-46.545455-74.472727c-18.618182-27.927273-46.545455-46.545455-79.127273-46.545454-13.963636 0-23.272727 4.654545-37.236363 4.654545l-242.036364 102.4v218.763636h93.090909v-158.254545l83.781818-32.581818-74.472727 377.018182-228.072727-46.545455-18.618182 93.090909 325.818182 65.163637z" fill="#00FF00"/>
</svg>
